<svg viewBox="0 0 500 500" version="1.1" id="svg_null"><g id="root" stroke="none" stroke-width="1" fill="none" fill-rule="evenodd"><rect id="background.accent" fill="transparent" x="0" y="0" width="500" height="500"></rect><path d="M249.5 390c77.596 0 140.5 -62.904 140.5 -140.5c0 -13.19 -1.818 -26.141 -5.365 -38.586l-3.847 1.096c3.445 12.09 5.212 24.671 5.212 37.49c0 75.387 -61.113 136.5 -136.5 136.5l0 4zm125.732 -203.272l-3.578 1.79c-22.96 -45.902 -69.907 -75.518 -122.154 -75.518c-34.585 0 -67.148 12.91 -92.143 35.792l-2.701 -2.95c25.725 -23.55 59.25 -36.842 94.844 -36.842c53.777 0 102.1 30.484 125.732 77.728zm-238.03 -21.678l3.196 2.407c-17.682 23.476 -27.398 52.02 -27.398 82.043c0 57.005 35.268 107.397 87.608 127.483l-1.433 3.735c-53.874 -20.675 -90.175 -72.543 -90.175 -131.218c0 -30.898 10.003 -60.286 28.202 -84.45zm86.856 222.652c8.33 1.524 16.829 2.297 25.425 2.298l0 -4c-8.354 -0.001 -16.612 -0.752 -24.706 -2.233l-0.72 3.935z" id="shape.primary" fill="#eeeeee" fill-rule="nonzero"></path><path d="M249.5 373c-68.207 0 -123.5 -55.293 -123.5 -123.5c0 -68.207 55.293 -123.5 123.5 -123.5c68.207 0 123.5 55.293 123.5 123.5c0 68.207 -55.293 123.5 -123.5 123.5zm0 -4c65.998 0 119.5 -53.502 119.5 -119.5c0 -65.998 -53.502 -119.5 -119.5 -119.5c-65.998 0 -119.5 53.502 -119.5 119.5c0 65.998 53.502 119.5 119.5 119.5z" id="shape.primary" fill="#eeeeee" fill-rule="nonzero"></path><g id="Group" transform="translate(155.000000, 277.000000)"><rect id="Rectangle-23" x="0" y="0" width="190" height="33"></rect><text id="headerText.primary" font-family="Cousine" font-size="32" font-weight="700" line-spacing="32" letter-spacing="2.667" fill="#eeeeee" data-text-alignment="C" font-style="normal"><tspan x="30.734375" y="27">CarCam</tspan></text></g><rect id="icon.primary" x="200" y="163" width="100" height="100" display="none" fill="#eeeeee"></rect><svg xmlns="http://www.w3.org/2000/svg" xmlns:xlink="http://www.w3.org/1999/xlink" viewBox="0 0 64 64" version="1.1" fill="#eeeeee" id="svg_icon.primary" x="200" y="163" width="100" height="100"><g id="surface1" fill="#eeeeee"><path style=" " d="M 37 9 C 35.898438 9 35 9.898438 35 11 L 35 12 L 7 12 C 5.300781 12 4 13.300781 4 15 L 4 18.402344 L 1.699219 19.597656 C 0.699219 20.097656 0 21.101563 0 22.300781 L 0 29.800781 C 0 30.902344 0.597656 32 1.699219 32.5 L 4 33.699219 L 4 51 C 4 52.699219 5.300781 54 7 54 L 23 54 L 23 55 C 23 56.101563 23.898438 57 25 57 L 39 57 C 40.101563 57 41 56.101563 41 55 L 41 54 L 47 54 C 48.699219 54 50 52.699219 50 51 L 50 42 L 57.597656 48.300781 C 58.300781 48.800781 59.101563 49.097656 60 49.097656 L 62 49.097656 C 63.101563 49.097656 64 48.199219 64 47.097656 L 64 19.097656 C 64 17.898438 63.101563 17 62 17 L 60 17 C 59.199219 17 58.300781 17.300781 57.597656 17.800781 L 50 24 L 50 15 C 50 13.300781 48.699219 12 47 12 L 41 12 L 41 11 C 41 9.898438 40.101563 9 39 9 Z M 37 11 L 39 11 L 39 12 L 37 12 Z M 7 14 L 47 14 C 47.601563 14 48 14.398438 48 15 L 48 51 C 48 51.601563 47.601563 52 47 52 L 7 52 C 6.398438 52 6 51.601563 6 51 L 6 33 C 6 32.601563 5.800781 32.300781 5.398438 32.097656 L 2.5 30.699219 C 2.199219 30.5 1.898438 30.199219 1.898438 29.800781 L 1.898438 22.300781 C 1.898438 21.902344 2.101563 21.601563 2.5 21.402344 L 5.398438 20 C 5.699219 19.800781 6 19.5 6 19.097656 L 6 15 C 6 14.398438 6.398438 14 7 14 Z M 60 19 L 62 19 L 62 47 L 60 47 C 59.601563 47 59.199219 46.898438 58.800781 46.597656 L 50 39.5 L 50 26.5 L 58.800781 19.402344 C 59.101563 19.101563 59.601563 19 60 19 Z M 37 22 C 34.300781 22 32 24.199219 32 27 C 32 29.800781 34.199219 32 37 32 C 39.699219 32 42 29.800781 42 27 C 42 24.199219 39.800781 22 37 22 Z M 59 22.097656 C 58.398438 22.097656 58 22.5 58 23.097656 L 58 43 C 58 43.601563 58.398438 44 59 44 C 59.601563 44 60 43.601563 60 43 L 60 23.097656 C 60 22.5 59.601563 22.097656 59 22.097656 Z M 37 23.800781 C 38.800781 23.800781 40.199219 25.199219 40.199219 27 C 40.199219 28.699219 38.800781 30.199219 37 30.199219 C 35.199219 30.199219 33.800781 28.800781 33.800781 27 C 33.800781 25.199219 35.199219 23.800781 37 23.800781 Z M 11 26 C 10.398438 26 10 26.398438 10 27 C 10 27.601563 10.398438 28 11 28 L 21 28 C 21.601563 28 22 27.601563 22 27 C 22 26.398438 21.601563 26 21 26 Z M 25 26 C 24.398438 26 24 26.398438 24 27 C 24 27.601563 24.398438 28 25 28 L 29 28 C 29.601563 28 30 27.601563 30 27 C 30 26.398438 29.601563 26 29 26 Z M 10 46 C 9.398438 46 9 46.398438 9 47 L 9 49 C 9 49.601563 9.398438 50 10 50 C 10.601563 50 11 49.601563 11 49 L 11 47 C 11 46.398438 10.601563 46 10 46 Z M 15 46 C 14.398438 46 14 46.398438 14 47 L 14 49 C 14 49.601563 14.398438 50 15 50 C 15.601563 50 16 49.601563 16 49 L 16 47 C 16 46.398438 15.601563 46 15 46 Z M 20 46 C 19.398438 46 19 46.398438 19 47 L 19 49 C 19 49.601563 19.398438 50 20 50 C 20.601563 50 21 49.601563 21 49 L 21 47 C 21 46.398438 20.601563 46 20 46 Z M 25 46 C 24.398438 46 24 46.398438 24 47 L 24 49 C 24 49.601563 24.398438 50 25 50 C 25.601563 50 26 49.601563 26 49 L 26 47 C 26 46.398438 25.601563 46 25 46 Z M 30 46 C 29.398438 46 29 46.398438 29 47 L 29 49 C 29 49.601563 29.398438 50 30 50 C 30.601563 50 31 49.601563 31 49 L 31 47 C 31 46.398438 30.601563 46 30 46 Z M 35 46 C 34.398438 46 34 46.398438 34 47 L 34 49 C 34 49.601563 34.398438 50 35 50 C 35.601563 50 36 49.601563 36 49 L 36 47 C 36 46.398438 35.601563 46 35 46 Z M 40 46 C 39.398438 46 39 46.398438 39 47 L 39 49 C 39 49.601563 39.398438 50 40 50 C 40.601563 50 41 49.601563 41 49 L 41 47 C 41 46.398438 40.601563 46 40 46 Z M 45 46 C 44.398438 46 44 46.398438 44 47 L 44 49 C 44 49.601563 44.398438 50 45 50 C 45.601563 50 46 49.601563 46 49 L 46 47 C 46 46.398438 45.601563 46 45 46 Z M 25 54 L 39 54 L 39 55 L 25 55 Z " fill="#eeeeee"></path></g></svg></g></svg>